<mxfile host="app.diagrams.net" agent="Mozilla/5.0 (Macintosh; Intel Mac OS X 10_15_7) AppleWebKit/605.1.15 (KHTML, like Gecko) Version/18.5 Safari/605.1.15" version="27.1.4">
  <diagram name="Seite-1" id="cSsHOk2Wa60f8mgRbdZm">
    <mxGraphModel dx="1181" dy="681" grid="1" gridSize="10" guides="1" tooltips="1" connect="1" arrows="1" fold="1" page="1" pageScale="1" pageWidth="827" pageHeight="1169" math="0" shadow="0" adaptiveColors="auto">
      <root>
        <mxCell id="0" />
        <mxCell id="1" parent="0" />
        <mxCell id="8NcpJ_bW0Bv_9jHg0qxz-1" style="edgeStyle=orthogonalEdgeStyle;rounded=0;orthogonalLoop=1;jettySize=auto;html=1;startArrow=classic;startFill=1;" parent="1" source="pYhCz_OLACclpXRN_d7E-1" target="ONmiQpBlXR7nflwjCwtw-11" edge="1">
          <mxGeometry relative="1" as="geometry" />
        </mxCell>
        <mxCell id="pYhCz_OLACclpXRN_d7E-1" value="Storage-Service" style="rounded=0;whiteSpace=wrap;html=1;labelBackgroundColor=none;fillColor=#dae8fc;strokeColor=#6c8ebf;" parent="1" vertex="1">
          <mxGeometry x="340" y="656" width="120" height="60" as="geometry" />
        </mxCell>
        <mxCell id="ONmiQpBlXR7nflwjCwtw-14" style="edgeStyle=none;curved=0;rounded=0;orthogonalLoop=1;jettySize=auto;html=1;entryX=0.5;entryY=0;entryDx=0;entryDy=0;fontSize=12;startSize=8;endSize=8;labelBackgroundColor=none;strokeColor=#A8201A;fontColor=default;" parent="1" source="pYhCz_OLACclpXRN_d7E-3" target="ONmiQpBlXR7nflwjCwtw-2" edge="1">
          <mxGeometry relative="1" as="geometry">
            <Array as="points">
              <mxPoint x="400" y="620" />
              <mxPoint x="616" y="620" />
            </Array>
          </mxGeometry>
        </mxCell>
        <mxCell id="ONmiQpBlXR7nflwjCwtw-15" style="edgeStyle=none;curved=1;rounded=0;orthogonalLoop=1;jettySize=auto;html=1;fontSize=12;startSize=8;endSize=8;labelBackgroundColor=none;strokeColor=#A8201A;fontColor=default;" parent="1" source="pYhCz_OLACclpXRN_d7E-3" target="pYhCz_OLACclpXRN_d7E-1" edge="1">
          <mxGeometry relative="1" as="geometry" />
        </mxCell>
        <mxCell id="ONmiQpBlXR7nflwjCwtw-17" style="edgeStyle=none;curved=0;rounded=0;orthogonalLoop=1;jettySize=auto;html=1;entryX=0.5;entryY=0;entryDx=0;entryDy=0;fontSize=12;startSize=8;endSize=8;labelBackgroundColor=none;strokeColor=#A8201A;fontColor=default;" parent="1" source="pYhCz_OLACclpXRN_d7E-3" target="ONmiQpBlXR7nflwjCwtw-12" edge="1">
          <mxGeometry relative="1" as="geometry">
            <Array as="points">
              <mxPoint x="400" y="620" />
              <mxPoint x="70" y="620" />
            </Array>
          </mxGeometry>
        </mxCell>
        <mxCell id="ONmiQpBlXR7nflwjCwtw-22" style="edgeStyle=none;curved=0;rounded=0;orthogonalLoop=1;jettySize=auto;html=1;entryX=0.5;entryY=0;entryDx=0;entryDy=0;strokeColor=#A8201A;fontSize=12;fontColor=#143642;startSize=8;endSize=8;fillColor=#FAE5C7;exitX=0.5;exitY=1;exitDx=0;exitDy=0;" parent="1" source="pYhCz_OLACclpXRN_d7E-3" target="ONmiQpBlXR7nflwjCwtw-21" edge="1">
          <mxGeometry relative="1" as="geometry">
            <mxPoint x="347" y="570" as="sourcePoint" />
            <Array as="points">
              <mxPoint x="400" y="620" />
              <mxPoint x="810" y="620" />
            </Array>
          </mxGeometry>
        </mxCell>
        <mxCell id="pYhCz_OLACclpXRN_d7E-3" value="API-Gateway" style="rounded=0;whiteSpace=wrap;html=1;labelBackgroundColor=none;fillColor=#FAE5C7;strokeColor=#0F8B8D;fontColor=#143642;" parent="1" vertex="1">
          <mxGeometry x="340" y="520" width="120" height="60" as="geometry" />
        </mxCell>
        <mxCell id="ONmiQpBlXR7nflwjCwtw-2" value="Monitoring-Service" style="rounded=0;whiteSpace=wrap;html=1;verticalAlign=top;align=left;labelBackgroundColor=none;fillColor=#f5f5f5;strokeColor=#666666;fontColor=#333333;" parent="1" vertex="1">
          <mxGeometry x="532" y="656" width="168" height="210" as="geometry" />
        </mxCell>
        <mxCell id="ONmiQpBlXR7nflwjCwtw-3" value="MinIO" style="shape=cylinder3;whiteSpace=wrap;html=1;boundedLbl=1;backgroundOutline=1;size=15;labelBackgroundColor=none;fillColor=#dae8fc;strokeColor=#6c8ebf;" parent="1" vertex="1">
          <mxGeometry x="310" y="866" width="76" height="90" as="geometry" />
        </mxCell>
        <mxCell id="ONmiQpBlXR7nflwjCwtw-4" value="PostgreSQL" style="shape=cylinder3;whiteSpace=wrap;html=1;boundedLbl=1;backgroundOutline=1;size=15;labelBackgroundColor=none;fillColor=#dae8fc;strokeColor=#6c8ebf;" parent="1" vertex="1">
          <mxGeometry x="430" y="866" width="80" height="90" as="geometry" />
        </mxCell>
        <mxCell id="ONmiQpBlXR7nflwjCwtw-7" value="Redis" style="shape=cylinder3;whiteSpace=wrap;html=1;boundedLbl=1;backgroundOutline=1;size=15;labelBackgroundColor=none;fillColor=#FAE5C7;strokeColor=#0F8B8D;fontColor=#143642;" parent="1" vertex="1">
          <mxGeometry x="180" y="866" width="80" height="90" as="geometry" />
        </mxCell>
        <mxCell id="ONmiQpBlXR7nflwjCwtw-8" value="Prometheus" style="rounded=0;whiteSpace=wrap;html=1;labelBackgroundColor=none;fillColor=#FAE5C7;strokeColor=#0F8B8D;fontColor=#143642;" parent="1" vertex="1">
          <mxGeometry x="552" y="696" width="120" height="60" as="geometry" />
        </mxCell>
        <mxCell id="ONmiQpBlXR7nflwjCwtw-9" value="Locust" style="rounded=0;whiteSpace=wrap;html=1;labelBackgroundColor=none;fillColor=#FAE5C7;strokeColor=#0F8B8D;fontColor=#143642;" parent="1" vertex="1">
          <mxGeometry x="552" y="776" width="120" height="60" as="geometry" />
        </mxCell>
        <mxCell id="ONmiQpBlXR7nflwjCwtw-18" style="edgeStyle=none;curved=1;rounded=0;orthogonalLoop=1;jettySize=auto;html=1;strokeColor=#A8201A;fontSize=12;fontColor=#143642;startSize=8;endSize=8;fillColor=#FAE5C7;" parent="1" source="ONmiQpBlXR7nflwjCwtw-11" target="ONmiQpBlXR7nflwjCwtw-7" edge="1">
          <mxGeometry relative="1" as="geometry" />
        </mxCell>
        <mxCell id="ONmiQpBlXR7nflwjCwtw-11" value="Cache-Service" style="rounded=0;whiteSpace=wrap;html=1;labelBackgroundColor=none;fillColor=#FAE5C7;strokeColor=#0F8B8D;fontColor=#143642;" parent="1" vertex="1">
          <mxGeometry x="160" y="656" width="120" height="60" as="geometry" />
        </mxCell>
        <mxCell id="HdYIlDlASf7f8Nae5Y51-1" value="" style="edgeStyle=orthogonalEdgeStyle;rounded=0;orthogonalLoop=1;jettySize=auto;html=1;" edge="1" parent="1" source="ONmiQpBlXR7nflwjCwtw-12" target="ONmiQpBlXR7nflwjCwtw-11">
          <mxGeometry relative="1" as="geometry">
            <Array as="points">
              <mxPoint x="230" y="686" />
            </Array>
          </mxGeometry>
        </mxCell>
        <mxCell id="ONmiQpBlXR7nflwjCwtw-12" value="Prediction-Service" style="rounded=0;whiteSpace=wrap;html=1;labelBackgroundColor=none;fillColor=#FAE5C7;strokeColor=#0F8B8D;fontColor=#143642;" parent="1" vertex="1">
          <mxGeometry x="10" y="656" width="120" height="60" as="geometry" />
        </mxCell>
        <mxCell id="ONmiQpBlXR7nflwjCwtw-13" style="edgeStyle=none;curved=0;rounded=0;orthogonalLoop=1;jettySize=auto;html=1;fontSize=12;startSize=8;endSize=8;entryX=0.5;entryY=0;entryDx=0;entryDy=0;labelBackgroundColor=none;strokeColor=#A8201A;fontColor=default;" parent="1" source="pYhCz_OLACclpXRN_d7E-3" target="ONmiQpBlXR7nflwjCwtw-11" edge="1">
          <mxGeometry relative="1" as="geometry">
            <mxPoint x="83" y="668" as="targetPoint" />
            <Array as="points">
              <mxPoint x="400" y="620" />
              <mxPoint x="220" y="620" />
            </Array>
          </mxGeometry>
        </mxCell>
        <mxCell id="ONmiQpBlXR7nflwjCwtw-19" style="edgeStyle=none;curved=1;rounded=0;orthogonalLoop=1;jettySize=auto;html=1;entryX=0.5;entryY=0;entryDx=0;entryDy=0;entryPerimeter=0;strokeColor=#A8201A;fontSize=12;fontColor=#143642;startSize=8;endSize=8;fillColor=#FAE5C7;" parent="1" source="pYhCz_OLACclpXRN_d7E-1" target="ONmiQpBlXR7nflwjCwtw-4" edge="1">
          <mxGeometry relative="1" as="geometry" />
        </mxCell>
        <mxCell id="ONmiQpBlXR7nflwjCwtw-20" style="edgeStyle=none;curved=1;rounded=0;orthogonalLoop=1;jettySize=auto;html=1;entryX=0.5;entryY=0;entryDx=0;entryDy=0;entryPerimeter=0;strokeColor=#A8201A;fontSize=12;fontColor=#143642;startSize=8;endSize=8;fillColor=#FAE5C7;" parent="1" source="pYhCz_OLACclpXRN_d7E-1" target="ONmiQpBlXR7nflwjCwtw-3" edge="1">
          <mxGeometry relative="1" as="geometry" />
        </mxCell>
        <mxCell id="ONmiQpBlXR7nflwjCwtw-21" value="Simulation-Service" style="rounded=0;whiteSpace=wrap;html=1;labelBackgroundColor=none;fillColor=#FAE5C7;strokeColor=#0F8B8D;fontColor=#143642;" parent="1" vertex="1">
          <mxGeometry x="750" y="656" width="120" height="60" as="geometry" />
        </mxCell>
        <mxCell id="HdYIlDlASf7f8Nae5Y51-3" style="edgeStyle=orthogonalEdgeStyle;rounded=0;orthogonalLoop=1;jettySize=auto;html=1;entryX=1;entryY=0.5;entryDx=0;entryDy=0;exitX=0.75;exitY=0;exitDx=0;exitDy=0;" edge="1" parent="1" source="ONmiQpBlXR7nflwjCwtw-21" target="pYhCz_OLACclpXRN_d7E-3">
          <mxGeometry relative="1" as="geometry">
            <Array as="points">
              <mxPoint x="840" y="550" />
            </Array>
          </mxGeometry>
        </mxCell>
      </root>
    </mxGraphModel>
  </diagram>
</mxfile>
